<svg xmlns="http://www.w3.org/2000/svg" xmlns:xlink="http://www.w3.org/1999/xlink" viewBox="0 0 32 32">
  <!-- Navy background tile -->
  <rect width="32" height="32" rx="6" fill="#162456"/>
  <!-- Scale the whale logo (231×273) down to fit in a 24×28 area, centred -->
  <g transform="translate(4, 2) scale(0.1039)">
    <path d="M56.3058 237.738C58.9724 207.904 75.2058 140.538 118.806 109.738M84.3058 225.738C81.3057 218.238 86.4314 180.738 93.3058 171.238M61.8058 144.738C61.8058 141.238 68.8057 133.738 76.3059 130.738" stroke="white" stroke-width="5"/>
    <path d="M124.978 104.469C125.743 104.384 126.313 105.159 126.004 105.864L121.752 115.575C121.444 116.28 120.487 116.387 120.031 115.767L113.747 107.229C113.291 106.609 113.677 105.728 114.442 105.642L124.978 104.469Z" fill="white"/>
    <circle cx="78.3055" cy="129.238" r="5.5" fill="white"/>
    <rect x="91.1293" y="160.738" width="11.1521" height="11.1521" rx="2" transform="rotate(22.8117 91.1293 160.738)" fill="white"/>
    <path d="M212.394 68.7068C204.267 69.3739 196.325 72.1804 189.583 76.7688C182.781 81.3985 177.217 87.8315 173.618 95.2307C168.624 105.496 162.348 119.664 164.586 130.858C167.702 146.439 158.539 167.852 139.895 164.13C127.852 161.726 140.177 152.484 145.709 147.318C151.242 142.153 146.648 131.11 142.194 129.656C142.04 129.619 141.886 129.587 141.73 129.561C133.728 128.22 123.91 141.38 118.431 155.814C117.838 157.378 117.296 158.957 116.812 160.534C113.457 171.468 118.691 192.493 125.219 184.23C130.272 179.855 130.7 178.038 136.74 180.477C147.964 185.01 137.572 196.243 114.987 200.899C102.999 203.369 94.0231 210.871 89.9545 221.75C90.6894 221.455 91.3953 221.214 92.0699 221.034C103.829 218.216 115.592 215.125 126.63 210.19C137.668 205.254 148.028 198.365 155.628 188.961C162.273 180.738 166.582 170.916 170.734 161.194C174.886 151.472 179.025 141.602 185.405 133.172C189.993 127.111 195.635 121.937 200.625 116.203C205.616 110.469 210.058 103.933 211.536 96.4766C212.465 91.7933 212.182 86.9659 211.934 82.1979C211.699 77.6921 211.503 73.1207 212.394 68.7068Z" fill="#FEFFFD" stroke="white" stroke-width="6"/>
    <path d="M209.855 52.491C208.995 52.0914 208.073 51.823 207.137 51.6618C204.641 51.2319 202.059 52.3804 199.572 51.8979C178.003 47.9465 159.934 48.4072 144.733 51.7334C129.797 55.0015 117.631 61.0347 107.632 68.3671C99.7117 66.8936 91.5133 67.564 83.8611 70.3111C76.2089 73.0582 69.373 77.7849 64.041 84.0158C65.7047 85.8834 67.5186 87.6078 69.4646 89.1717C70.9666 90.4041 72.546 91.5373 74.1934 92.5644C75.4324 94.0648 76.2734 95.863 76.6391 97.7933C77.0048 99.7236 76.8834 101.724 76.2861 103.611C75.4029 105.085 74.5708 106.546 73.7861 107.99C66.5389 121.33 63.3704 133.342 61.9905 142.965C61.1643 148.726 60.98 153.631 60.9447 157.452C60.8336 169.49 42.8312 212.015 49.071 230.918C54.9784 248.815 76.8899 226.993 89.9544 221.75C94.023 210.871 102.999 203.369 114.987 200.898C137.572 196.243 147.964 185.01 136.739 180.477C130.7 178.038 130.272 179.855 125.219 184.23C118.691 192.493 113.457 171.468 116.812 160.534C117.296 158.957 117.837 157.378 118.431 155.814C123.91 141.38 133.728 128.219 141.73 129.561C141.886 129.587 142.04 129.618 142.194 129.656C146.648 131.11 151.242 142.153 145.709 147.318C140.176 152.483 127.852 161.726 139.895 164.13C158.539 167.852 167.701 146.439 164.586 130.858C162.348 119.664 168.624 105.496 173.618 95.2305C177.217 87.8313 182.781 81.3983 189.583 76.7686C196.325 72.1802 204.267 69.3737 212.394 68.7066C212.446 68.4499 212.501 68.194 212.561 67.9384C213.04 65.8753 213.769 63.869 214.114 61.7792C214.459 59.6894 214.386 57.4402 213.345 55.5956C212.723 54.4926 211.779 53.5876 210.693 52.935C210.422 52.7719 210.142 52.6243 209.855 52.491ZM172.94 68.7821C173.24 68.9342 173.516 69.1304 173.757 69.3639C174.239 69.831 174.577 70.4447 174.712 71.1021C174.898 72.0084 174.698 72.9663 174.28 73.7918C173.863 74.6174 173.238 75.3227 172.555 75.9473C171.276 77.118 169.786 78.0283 168.356 79.0097C166.926 79.991 165.526 81.0725 164.529 82.4916C163.507 83.9466 162.964 85.6734 162.351 87.3427C161.739 89.012 161.009 90.7021 159.721 91.9277C158.855 92.752 157.759 93.3312 156.591 93.5885C155.423 93.8457 154.187 93.7816 153.049 93.4128C151.912 93.044 150.876 92.3717 150.069 91.4889C149.263 90.606 148.687 89.5149 148.407 88.3524C147.889 86.2039 148.383 83.9292 149.204 81.8771C150.897 77.6423 154.002 73.9957 157.881 71.5978C162.057 69.017 167.114 67.8939 171.989 68.4645C172.319 68.5217 172.641 68.63 172.94 68.7821Z" stroke="white" stroke-width="6"/>
  </g>
</svg>
